<?xml version="1.0" standalone="no"?>
<!DOCTYPE svg PUBLIC "-//W3C//DTD SVG 20010904//EN"
 "http://www.w3.org/TR/2001/REC-SVG-20010904/DTD/svg10.dtd">
<svg version="1.0" xmlns="http://www.w3.org/2000/svg"
 width="256.000000pt" height="256.000000pt" viewBox="0 0 256.000000 256.000000"
 preserveAspectRatio="xMidYMid meet">
<metadata>
Created by potrace 1.16, written by Peter Selinger 2001-2019
</metadata>
<g transform="translate(0.000000,256.000000) scale(0.100000,-0.100000)"
fill="#000000" stroke="none">
<path d="M593 1845 c-10 -11 -13 -139 -13 -566 0 -514 1 -553 18 -565 26 -20
587 -20 608 0 10 10 14 39 14 98 0 112 5 110 -216 107 -96 -1 -177 1 -180 4
-3 3 -5 206 -4 451 0 301 -3 452 -10 466 -10 18 -21 20 -108 20 -71 -1 -100
-5 -109 -15z"/>
<path d="M1376 1851 c-3 -5 -6 -260 -6 -567 -1 -640 -12 -578 104 -575 116 3
105 -24 108 264 l3 252 204 3 c134 1 209 6 218 14 10 8 13 33 11 92 l-3 81
-204 3 c-130 1 -209 6 -218 13 -9 8 -13 42 -13 120 0 60 1 110 3 111 1 1 99 4
217 7 l215 6 3 78 c2 50 -1 84 -9 93 -9 11 -67 14 -320 14 -169 0 -310 -4
-313 -9z"/>
</g>
</svg>
